HIERARCHY
ROOT Hips
{
  OFFSET 5.72205e-005 65.662 3.42586
  CHANNELS 6 Xposition Yposition Zposition Zrotation Xrotation Yrotation
  JOINT Chest
  {
    OFFSET 0 8.7983 -4.7612
    CHANNELS 6 Xposition Yposition Zposition Zrotation Xrotation Yrotation
    JOINT Chest2
    {
      OFFSET 0 8.0291 0.4195
      CHANNELS 6 Xposition Yposition Zposition Zrotation Xrotation Yrotation
      JOINT Chest3
      {
        OFFSET 0 9.9351 -2.2114
        CHANNELS 6 Xposition Yposition Zposition Zrotation Xrotation Yrotation
        JOINT Neck
        {
          OFFSET 0 22.3885 -0.4656
          CHANNELS 6 Xposition Yposition Zposition Zrotation Xrotation Yrotation
          JOINT Head
          {
            OFFSET -0.0001 12.643 3.4389
            CHANNELS 6 Xposition Yposition Zposition Zrotation Xrotation Yrotation
            End Site
            {
              OFFSET 0.0001 17.6655 0.5274
            }
          }
        }
        JOINT LeftCollar
        {
          OFFSET 2.2603 21.606 7.4023
          CHANNELS 6 Xposition Yposition Zposition Zrotation Xrotation Yrotation
          JOINT LeftShoulder
          {
            OFFSET 13.5163 -1.1332 -5.0146
            CHANNELS 6 Xposition Yposition Zposition Zrotation Xrotation Yrotation
            JOINT LeftElbow
            {
              OFFSET -0.0995 -28.05 -0.2431
              CHANNELS 6 Xposition Yposition Zposition Zrotation Xrotation Yrotation
              JOINT LeftWrist
              {
                OFFSET 0.0679 -23.3996 -0.1402
                CHANNELS 6 Xposition Yposition Zposition Zrotation Xrotation Yrotation
                JOINT LeftFinger1
                {
                  OFFSET 0.7932 -9.069 2.5189
                  CHANNELS 6 Xposition Yposition Zposition Zrotation Xrotation Yrotation
                  JOINT LeftFinger11
                  {
                    OFFSET -0.8272 -3.3923 0.5977
                    CHANNELS 6 Xposition Yposition Zposition Zrotation Xrotation Yrotation
                    JOINT LeftFinger12
                    {
                      OFFSET -0.5649 -2.3158 0.4082
                      CHANNELS 6 Xposition Yposition Zposition Zrotation Xrotation Yrotation
                      End Site
                      {
                        OFFSET -0.4919 -1.6479 0.2673
                      }
                    }
                  }
                }
                JOINT LeftFinger2
                {
                  OFFSET 0.9159 -9.2044 0.2193
                  CHANNELS 6 Xposition Yposition Zposition Zrotation Xrotation Yrotation
                  JOINT LeftFinger21
                  {
                    OFFSET 0.0117 -4.1944 -0.0248
                    CHANNELS 6 Xposition Yposition Zposition Zrotation Xrotation Yrotation
                    JOINT LeftFinger22
                    {
                      OFFSET 0.0071 -2.3249 -0.0142
                      CHANNELS 6 Xposition Yposition Zposition Zrotation Xrotation Yrotation
                      End Site
                      {
                        OFFSET -0.1475 -2.0882 0.0028
                      }
                    }
                  }
                }
                JOINT LeftFinger3
                {
                  OFFSET 0.6113 -8.7231 -2.0637
                  CHANNELS 6 Xposition Yposition Zposition Zrotation Xrotation Yrotation
                  JOINT LeftFinger31
                  {
                    OFFSET -0.1927 -3.8059 -0.2383
                    CHANNELS 6 Xposition Yposition Zposition Zrotation Xrotation Yrotation
                    JOINT LeftFinger32
                    {
                      OFFSET -0.1091 -2.1688 -0.1362
                      CHANNELS 6 Xposition Yposition Zposition Zrotation Xrotation Yrotation
                      End Site
                      {
                        OFFSET -0.2358 -1.9176 -0.0906
                      }
                    }
                  }
                }
                JOINT LeftFinger4
                {
                  OFFSET -0.6151 -8.0947 -3.5641
                  CHANNELS 6 Xposition Yposition Zposition Zrotation Xrotation Yrotation
                  JOINT LeftFinger41
                  {
                    OFFSET -0.4882 -2.341 -0.6462
                    CHANNELS 6 Xposition Yposition Zposition Zrotation Xrotation Yrotation
                    JOINT LeftFinger42
                    {
                      OFFSET -0.3575 -1.7167 -0.4742
                      CHANNELS 6 Xposition Yposition Zposition Zrotation Xrotation Yrotation
                      End Site
                      {
                        OFFSET -0.4187 -1.5237 -0.3496
                      }
                    }
                  }
                }
                JOINT LeftFinger0
                {
                  OFFSET -1.42 -1.8761 1.4223
                  CHANNELS 6 Xposition Yposition Zposition Zrotation Xrotation Yrotation
                  JOINT LeftFinger01
                  {
                    OFFSET -1.1471 -3.4929 2.6334
                    CHANNELS 6 Xposition Yposition Zposition Zrotation Xrotation Yrotation
                    JOINT LeftFinger02
                    {
                      OFFSET -0.823 -2.3 1.6571
                      CHANNELS 6 Xposition Yposition Zposition Zrotation Xrotation Yrotation
                      End Site
                      {
                        OFFSET -0.5822 -1.6914 1.1582
                      }
                    }
                  }
                }
              }
            }
          }
        }
        JOINT RightCollar
        {
          OFFSET -2.2603 21.606 7.4023
          CHANNELS 6 Xposition Yposition Zposition Zrotation Xrotation Yrotation
          JOINT RightShoulder
          {
            OFFSET -13.5187 -1.1334 -5.0155
            CHANNELS 6 Xposition Yposition Zposition Zrotation Xrotation Yrotation
            JOINT RightElbow
            {
              OFFSET 0.0994 -28.0499 -0.2431
              CHANNELS 6 Xposition Yposition Zposition Zrotation Xrotation Yrotation
              JOINT RightWrist
              {
                OFFSET -0.0679 -23.3996 -0.1402
                CHANNELS 6 Xposition Yposition Zposition Zrotation Xrotation Yrotation
                JOINT RightFinger1
                {
                  OFFSET -0.7932 -9.0691 2.5189
                  CHANNELS 6 Xposition Yposition Zposition Zrotation Xrotation Yrotation
                  JOINT RightFinger11
                  {
                    OFFSET 0.8272 -3.3923 0.5977
                    CHANNELS 6 Xposition Yposition Zposition Zrotation Xrotation Yrotation
                    JOINT RightFinger12
                    {
                      OFFSET 0.565 -2.3158 0.4082
                      CHANNELS 6 Xposition Yposition Zposition Zrotation Xrotation Yrotation
                      End Site
                      {
                        OFFSET 0.4919 -1.6479 0.2673
                      }
                    }
                  }
                }
                JOINT RightFinger2
                {
                  OFFSET -0.916 -9.2044 0.2193
                  CHANNELS 6 Xposition Yposition Zposition Zrotation Xrotation Yrotation
                  JOINT RightFinger21
                  {
                    OFFSET -0.0117 -4.1944 -0.0248
                    CHANNELS 6 Xposition Yposition Zposition Zrotation Xrotation Yrotation
                    JOINT RightFinger22
                    {
                      OFFSET -0.0071 -2.3249 -0.0142
                      CHANNELS 6 Xposition Yposition Zposition Zrotation Xrotation Yrotation
                      End Site
                      {
                        OFFSET 0.1475 -2.0882 0.0028
                      }
                    }
                  }
                }
                JOINT RightFinger3
                {
                  OFFSET -0.6113 -8.7231 -2.0637
                  CHANNELS 6 Xposition Yposition Zposition Zrotation Xrotation Yrotation
                  JOINT RightFinger31
                  {
                    OFFSET 0.1927 -3.8059 -0.2383
                    CHANNELS 6 Xposition Yposition Zposition Zrotation Xrotation Yrotation
                    JOINT RightFinger32
                    {
                      OFFSET 0.1091 -2.1688 -0.1362
                      CHANNELS 6 Xposition Yposition Zposition Zrotation Xrotation Yrotation
                      End Site
                      {
                        OFFSET 0.2358 -1.9176 -0.0906
                      }
                    }
                  }
                }
                JOINT RightFinger4
                {
                  OFFSET 0.6151 -8.0947 -3.564
                  CHANNELS 6 Xposition Yposition Zposition Zrotation Xrotation Yrotation
                  JOINT RightFinger41
                  {
                    OFFSET 0.4882 -2.341 -0.6462
                    CHANNELS 6 Xposition Yposition Zposition Zrotation Xrotation Yrotation
                    JOINT RightFinger42
                    {
                      OFFSET 0.3574 -1.7166 -0.4742
                      CHANNELS 6 Xposition Yposition Zposition Zrotation Xrotation Yrotation
                      End Site
                      {
                        OFFSET 0.4187 -1.5237 -0.3496
                      }
                    }
                  }
                }
                JOINT RightFinger0
                {
                  OFFSET 1.4199 -1.8761 1.4221
                  CHANNELS 6 Xposition Yposition Zposition Zrotation Xrotation Yrotation
                  JOINT RightFinger01
                  {
                    OFFSET 1.1472 -3.4929 2.6336
                    CHANNELS 6 Xposition Yposition Zposition Zrotation Xrotation Yrotation
                    JOINT RightFinger02
                    {
                      OFFSET 0.8229 -2.3 1.6571
                      CHANNELS 6 Xposition Yposition Zposition Zrotation Xrotation Yrotation
                      End Site
                      {
                        OFFSET 0.5822 -1.6914 1.1582
                      }
                    }
                  }
                }
              }
            }
          }
        }
      }
    }
  }
  JOINT RightHip
  {
    OFFSET -9.412 3.9771 -0.7758
    CHANNELS 6 Xposition Yposition Zposition Zrotation Xrotation Yrotation
    JOINT RightKnee
    {
      OFFSET -0.7531 -40.938 0
      CHANNELS 6 Xposition Yposition Zposition Zrotation Xrotation Yrotation
      JOINT RightAnkle
      {
        OFFSET 0 -40.1986 0
        CHANNELS 6 Xposition Yposition Zposition Zrotation Xrotation Yrotation
        JOINT RightToe
        {
          OFFSET 0 -4.4182 9.239
          CHANNELS 6 Xposition Yposition Zposition Zrotation Xrotation Yrotation
          End Site
          {
            OFFSET 0 0 6.1981
          }
        }
      }
    }
  }
  JOINT LeftHip
  {
    OFFSET 9.4119 3.9773 -0.7758
    CHANNELS 6 Xposition Yposition Zposition Zrotation Xrotation Yrotation
    JOINT LeftKnee
    {
      OFFSET 0.7532 -40.9383 0
      CHANNELS 6 Xposition Yposition Zposition Zrotation Xrotation Yrotation
      JOINT LeftAnkle
      {
        OFFSET 0 -40.1986 0
        CHANNELS 6 Xposition Yposition Zposition Zrotation Xrotation Yrotation
        JOINT LeftToe
        {
          OFFSET 0 -4.4182 9.239
          CHANNELS 6 Xposition Yposition Zposition Zrotation Xrotation Yrotation
          End Site
          {
            OFFSET 0 0 6.1981
          }
        }
      }
    }
  }
}
MOTION
Frames:	4
Frame Time:	0.0333333
1.63019 40.8188 2.06605 -7.03068e-008 26.6503 -1.14701e-007 2.22045e-016 8.7983 -4.7612 0.241774 -1.92637 -0.278831 0 8.0291 0.4195 0.474561 -3.85385 -0.549985 -4.44089e-016 9.9351 -2.2114 0.474562 -3.85386 -0.549987 0 22.3885 -0.4656 2.60413e-005 19.7255 -2.20286e-005 -0.0001 12.643 3.4389 6.43231 -37.5151 3.30511 2.2603 21.606 7.4023 -17.8775 -9.74811 -39.9361 13.5163 -1.1332 -5.0146 49.1377 23.9003 -40.7743 -0.0995 -28.05 -0.2431 -7.81235 -19.1694 -3.598 0.0679 -23.3996 -0.1402 24.1898 -36.382 6.57772 0.7932 -9.069 2.5189 -3.18055e-015 -1.98785e-015 -0 -0.8272 -3.3923 0.5977 9.54166e-015 -1.59028e-015 -3.97569e-015 -0.5649 -2.3158 0.4082 9.54166e-015 7.95139e-016 -2.38542e-015 0.9159 -9.2044 0.2193 -3.18055e-015 -1.98785e-015 -0 0.0117 -4.1944 -0.0248 -0.0128023 0.00232528 8.60332e-005 0.0071 -2.3249 -0.0142 3.18055e-015 -4.37326e-015 -3.97569e-015 0.6113 -8.7231 -2.0637 -3.18055e-015 -1.98785e-015 -0 -0.1927 -3.8059 -0.2383 -0.0160985 0.00300076 0.000863807 -0.1091 -2.1688 -0.1362 3.55865e-009 -7.16857e-006 -1.18894e-005 -0.6151 -8.0947 -3.5641 -3.18055e-015 -1.98785e-015 -0 -0.4882 -2.341 -0.6462 -0.0125961 0.0031217 0.00283225 -0.3575 -1.7167 -0.4742 0 4.77083e-015 -0 -1.42 -1.8761 1.4223 -3.18055e-015 -1.98785e-015 -0 -1.1471 -3.4929 2.6334 9.54166e-015 -1.59028e-015 -3.97569e-015 -0.823 -2.3 1.6571 9.54166e-015 7.95139e-016 -2.38542e-015 -2.2603 21.606 7.4023 11.6413 0.635567 -27.5565 -13.5187 -1.1334 -5.0155 -27.4524 -73.3818 -41.7202 0.0994 -28.0499 -0.2431 98.2568 -31.2886 74.8053 -0.0679 -23.3996 -0.1402 32.2868 -6.96668 -36.4275 -0.7932 -9.06911 2.5189 3.18055e-015 0 -0 0.8272 -3.3923 0.5977 3.18055e-015 -3.18055e-015 -0 0.565 -2.3158 0.4082 6.36111e-015 1.59028e-015 -0 -0.916 -9.20441 0.2193 3.18055e-015 0 -0 -0.0117 -4.1944 -0.0248 0.0129133 0.00230228 -7.85557e-005 -0.0071 -2.3249 -0.0142 -0 0 6.36111e-015 -0.6113 -8.7231 -2.0637 3.18055e-015 0 -0 0.1927 -3.8059 -0.2383 0.0163363 0.0030361 -0.000879203 0.1091 -2.1688 -0.1362 -3.18055e-015 0 -0 0.6151 -8.0947 -3.564 3.18055e-015 0 -0 0.4882 -2.341 -0.6462 0.0145587 0.00366934 -0.00324397 0.3574 -1.7166 -0.4742 3.18055e-015 6.36111e-015 -0 1.4199 -1.8761 1.4221 3.18055e-015 0 -0 1.1472 -3.4929 2.6336 3.18055e-015 -3.18055e-015 -0 0.8229 -2.3 1.6571 6.36111e-015 1.59028e-015 -0 -9.412 3.9771 -0.7758 -61.6742 -13.0315 -20.5179 -0.7531 -40.938 0 -178.249 87.8374 176.946 0 -40.1986 3.55271e-015 41.6183 38.4577 -51.1573 0 -4.4182 9.239 -1.9936e-006 -7.8965e-007 -2.77255e-006 9.4119 3.9773 -0.7758 61.5513 -12.951 20.5706 0.7532 -40.9383 0 178.784 87.8314 -177.486 -7.10543e-015 -40.1986 0 -41.5587 38.4783 51.1109 3.55271e-015 -4.4182 9.239 3.97362e-006 -2.52604e-007 5.5548e-006 
1.63 40.875 1.82819 4.50965e-008 27.3031 -4.04866e-008 -2.22045e-016 8.7983 -4.7612 0.242705 -2.07675 -0.278032 -2.22045e-016 8.0291 0.4195 0.475783 -4.15463 -0.547791 -4.44089e-016 9.9351 -2.2114 0.475783 -4.15463 -0.547791 -4.44089e-016 22.3885 -0.4656 -4.31543e-006 18.9666 3.9779e-006 -0.0001 12.643 3.4389 6.42518 -37.9486 3.35383 2.2603 21.606 7.4023 -17.9858 -9.45578 -39.7298 13.5163 -1.1332 -5.0146 49.1376 23.9004 -40.7742 -0.0995 -28.05 -0.2431 -7.70091 -18.9594 -3.55794 0.0679 -23.3996 -0.1402 24.3381 -36.6427 6.63121 0.7932 -9.069 2.5189 -1.59028e-014 -3.18055e-015 -4.77083e-015 -0.8272 -3.3923 0.5977 -1.59028e-014 1.98785e-015 -7.15625e-015 -0.5649 -2.3158 0.4082 -1.27222e-014 7.95139e-016 1.59028e-015 0.9159 -9.2044 0.2193 -1.59028e-014 -3.18055e-015 -4.77083e-015 0.0117 -4.1944 -0.0248 -0.0128065 0.00232893 8.99599e-005 0.0071 -2.3249 -0.0142 6.36111e-015 6.75868e-015 -4.77083e-015 0.6113 -8.7231 -2.0637 -1.59028e-014 -3.18055e-015 -4.77083e-015 -0.1927 -3.8059 -0.2383 -0.0160528 0.00300325 0.000870604 -0.1091 -2.1688 -0.1362 3.18055e-015 9.14409e-015 -7.95139e-015 -0.6151 -8.0947 -3.5641 -1.59028e-014 -3.18055e-015 -4.77083e-015 -0.4882 -2.341 -0.6462 -0.012571 0.00312449 0.00283218 -0.3575 -1.7167 -0.4742 6.36111e-015 -5.56597e-015 -0 -1.42 -1.8761 1.4223 -1.59028e-014 -3.18055e-015 -4.77083e-015 -1.1471 -3.4929 2.6334 -1.59028e-014 1.98785e-015 -7.15625e-015 -0.823 -2.3 1.6571 -1.27222e-014 7.95139e-016 1.59028e-015 -2.2603 21.606 7.4023 11.7556 0.721214 -27.8363 -13.5187 -1.1334 -5.0155 -26.9181 -73.3902 -41.1767 0.0994 -28.0499 -0.2431 98.2568 -31.2886 74.8053 -0.0679 -23.3996 -0.1402 32.3644 -7.02899 -36.3903 -0.7932 -9.0691 2.5189 4.84995e-006 -1.09133e-005 -1.1904e-005 0.8272 -3.3923 0.5977 2.75795e-006 -1.00181e-006 -9.8118e-007 0.565 -2.3158 0.4082 -6.36111e-015 -1.27222e-014 -9.54166e-015 -0.916 -9.2044 0.2193 4.84995e-006 -1.09133e-005 -1.1904e-005 -0.0117 -4.1944 -0.0248 0.0129992 0.00232472 -9.21975e-005 -0.0071 -2.3249 -0.0142 -3.18055e-015 -4.77083e-015 3.18055e-015 -0.6113 -8.7231 -2.0637 4.84995e-006 -1.09133e-005 -1.1904e-005 0.1927 -3.8059 -0.2383 0.0163024 0.0030335 -0.000873104 0.1091 -2.1688 -0.1362 0 7.95139e-015 -0 0.6151 -8.0947 -3.564 4.84995e-006 -1.09133e-005 -1.1904e-005 0.4882 -2.341 -0.6462 0.0145131 0.00367349 -0.00324486 0.3574 -1.7166 -0.4742 2.03151e-006 -5.57131e-006 1.68914e-006 1.4199 -1.8761 1.4221 4.84995e-006 -1.09133e-005 -1.1904e-005 1.1472 -3.4929 2.6336 2.75795e-006 -1.00181e-006 -9.8118e-007 0.8229 -2.3 1.6571 -6.36111e-015 -1.27222e-014 -9.54166e-015 -9.412 3.9771 -0.7758 -61.5205 -13.7336 -20.7116 -0.7531 -40.938 0 -178.219 87.5885 176.922 0 -40.1986 7.10543e-015 42.2135 38.2208 -51.5458 0 -4.4182 9.239 1.99353e-006 7.16234e-007 2.7726e-006 9.4119 3.9773 -0.7758 61.387 -13.6504 20.7609 0.7532 -40.9383 0 178.694 87.5817 -177.404 0 -40.1986 3.55271e-015 -42.1592 38.2391 51.5024 3.55271e-015 -4.4182 9.239 -1.98636e-006 -1.64164e-006 -2.77772e-006 
1.6298 40.9321 1.59041 -3.82652e-008 27.9558 -2.99856e-008 0 8.7983 -4.7612 0.243627 -2.22705 -0.277216 0 8.0291 0.4195 0.476999 -4.45526 -0.545563 4.44089e-016 9.9351 -2.2114 0.477001 -4.45526 -0.545564 0 22.3885 -0.4656 1.87668e-005 18.2069 -1.65554e-005 -0.0001 12.643 3.4389 6.41848 -38.3815 3.40269 2.2603 21.606 7.4023 -18.095 -9.16412 -39.5232 13.5163 -1.1332 -5.0146 49.1377 23.9003 -40.7743 -0.0995 -28.05 -0.2431 -7.59011 -18.7492 -3.51843 0.0679 -23.3996 -0.1402 24.4872 -36.9033 6.68579 0.7932 -9.069 2.5189 -5.51738e-032 -7.95139e-016 -3.97569e-015 -0.8272 -3.3923 0.5977 -4.23645e-006 -3.9956e-006 1.81901e-006 -0.5649 -2.3158 0.4082 -8.50364e-007 8.41621e-006 2.76588e-006 0.9159 -9.2044 0.2193 -5.51738e-032 -7.95139e-016 -3.97569e-015 0.0117 -4.1944 -0.0248 -0.0128209 0.00231927 8.53657e-005 0.0071 -2.3249 -0.0142 -1.39774e-006 -7.40721e-008 6.53937e-006 0.6113 -8.7231 -2.0637 -5.51738e-032 -7.95139e-016 -3.97569e-015 -0.1927 -3.8059 -0.2383 -0.0160633 0.00299354 0.000869028 -0.1091 -2.1688 -0.1362 -5.1014e-006 1.81062e-006 -1.34842e-006 -0.6151 -8.0947 -3.5641 -5.51738e-032 -7.95139e-016 -3.97569e-015 -0.4882 -2.341 -0.6462 -0.0125578 0.0031163 0.00282926 -0.3575 -1.7167 -0.4742 -5.51738e-032 3.97569e-015 7.95139e-016 -1.42 -1.8761 1.4223 -5.51738e-032 -7.95139e-016 -3.97569e-015 -1.1471 -3.4929 2.6334 -4.23645e-006 -3.9956e-006 1.81901e-006 -0.823 -2.3 1.6571 -8.50364e-007 8.41621e-006 2.76588e-006 -2.2603 21.606 7.4023 11.8704 0.805981 -28.1162 -13.5187 -1.1334 -5.0155 -26.3831 -73.3972 -40.6324 0.0994 -28.0499 -0.2431 98.2567 -31.2886 74.8053 -0.0679 -23.3996 -0.1402 32.4421 -7.09124 -36.353 -0.7932 -9.0691 2.5189 -8.36394e-006 -2.45097e-006 3.93187e-008 0.8272 -3.3923 0.5977 8.36394e-006 2.45097e-006 -3.9319e-008 0.565 -2.3158 0.4082 -8.36394e-006 -2.45097e-006 3.93187e-008 -0.916 -9.2044 0.2193 -8.36394e-006 -2.45097e-006 3.93187e-008 -0.0117 -4.1944 -0.0248 0.012971 0.00230537 -7.68357e-005 -0.0071 -2.3249 -0.0142 -1.41715e-006 -9.6123e-007 -3.06609e-006 -0.6113 -8.7231 -2.0637 -8.36394e-006 -2.45097e-006 3.93187e-008 0.1927 -3.8059 -0.2383 0.0163285 0.00301338 -0.000865662 0.1091 -2.1688 -0.1362 -1.03108e-005 5.59662e-007 5.46778e-006 0.6151 -8.0947 -3.564 -8.36394e-006 -2.45097e-006 3.93187e-008 0.4882 -2.341 -0.6462 0.0146162 0.00367523 -0.0032655 0.3574 -1.7166 -0.4742 7.2882e-007 -2.98194e-006 -2.67057e-006 1.4199 -1.8761 1.4221 -8.36394e-006 -2.45097e-006 3.93187e-008 1.1472 -3.4929 2.6336 8.36394e-006 2.45097e-006 -3.9319e-008 0.8229 -2.3 1.6571 -8.36394e-006 -2.45097e-006 3.93187e-008 -9.412 3.9771 -0.7758 -61.3687 -14.4359 -20.9039 -0.7531 -40.938 4.44089e-016 -178.194 87.3394 176.905 0 -40.1986 0 42.8044 37.98 -51.9295 3.55271e-015 -4.4182 9.239 4.47266e-016 3.18055e-015 6.95746e-016 9.4119 3.9773 -0.7758 61.2243 -14.3501 20.9496 0.7532 -40.9383 4.44089e-016 178.62 87.3315 -177.338 7.10543e-015 -40.1986 0 -42.7554 37.996 51.8892 0 -4.4182 9.239 1.98574e-006 1.80314e-006 2.77816e-006 
1.62959 40.9901 1.35274 -6.78171e-008 28.6084 -1.13929e-007 2.22045e-016 8.7983 -4.7612 0.244555 -2.37742 -0.276399 0 8.0291 0.4195 0.478236 -4.75596 -0.543332 0 9.9351 -2.2114 0.478236 -4.75595 -0.543332 -4.44089e-016 22.3885 -0.4656 3.16121e-006 17.4469 -2.51109e-006 -0.0001 12.643 3.4389 6.41224 -38.8138 3.45171 2.2603 21.606 7.4023 -18.2053 -8.87266 -39.3162 13.5163 -1.1332 -5.0146 49.1377 23.9003 -40.7743 -0.0995 -28.05 -0.2431 -7.47941 -18.5389 -3.47932 0.0679 -23.3996 -0.1402 24.6372 -37.1638 6.74142 0.7932 -9.069 2.5189 -9.54166e-015 2.78299e-015 -1.59028e-015 -0.8272 -3.3923 0.5977 4.41391e-032 3.18055e-015 -7.95139e-016 -0.5649 -2.3158 0.4082 1.54487e-031 -2.78299e-015 3.18055e-015 0.9159 -9.2044 0.2193 -9.54166e-015 2.78299e-015 -1.59028e-015 0.0117 -4.1944 -0.0248 -0.0128462 0.00233645 8.75066e-005 0.0071 -2.3249 -0.0142 -1.71128e-006 5.85197e-007 -4.03829e-007 0.6113 -8.7231 -2.0637 -9.54166e-015 2.78299e-015 -1.59028e-015 -0.1927 -3.8059 -0.2383 -0.0160582 0.0029987 0.000861365 -0.1091 -2.1688 -0.1362 3.18055e-015 3.18055e-015 3.97569e-015 -0.6151 -8.0947 -3.5641 -9.54166e-015 2.78299e-015 -1.59028e-015 -0.4882 -2.341 -0.6462 -0.012576 0.00313006 0.00283357 -0.3575 -1.7167 -0.4742 4.51369e-006 1.87472e-006 -6.73926e-006 -1.42 -1.8761 1.4223 -9.54166e-015 2.78299e-015 -1.59028e-015 -1.1471 -3.4929 2.6334 4.41391e-032 3.18055e-015 -7.95139e-016 -0.823 -2.3 1.6571 1.54487e-031 -2.78299e-015 3.18055e-015 -2.2603 21.606 7.4023 11.9855 0.890428 -28.3963 -13.5187 -1.1334 -5.0155 -25.848 -73.4026 -40.088 0.0994 -28.0499 -0.2431 98.2568 -31.2886 74.8053 -0.0679 -23.3996 -0.1402 32.5197 -7.15349 -36.3156 -0.7932 -9.0691 2.5189 -6.36111e-015 -4.77083e-015 -3.18055e-015 0.8272 -3.3923 0.5977 6.36111e-015 -1.43125e-014 -3.18055e-015 0.565 -2.3158 0.4082 -3.18055e-015 -9.54166e-015 -9.54166e-015 -0.916 -9.2044 0.2193 -6.36111e-015 -4.77083e-015 -3.18055e-015 -0.0117 -4.1944 -0.0248 0.0129367 0.00231583 -8.63959e-005 -0.0071 -2.3249 -0.0142 -6.36111e-015 1.59028e-015 6.36111e-015 -0.6113 -8.7231 -2.0637 -6.36111e-015 -4.77083e-015 -3.18055e-015 0.1927 -3.8059 -0.2383 0.0163161 0.00304522 -0.000867336 0.1091 -2.1688 -0.1362 3.18055e-015 -3.18055e-015 3.18055e-015 0.6151 -8.0947 -3.564 -6.36111e-015 -4.77083e-015 -3.18055e-015 0.4882 -2.341 -0.6462 0.0145771 0.00366893 -0.00325848 0.3574 -1.7166 -0.4742 -4.7715e-006 1.39584e-005 -6.98188e-007 1.4199 -1.8761 1.4221 -6.36111e-015 -4.77083e-015 -3.18055e-015 1.1472 -3.4929 2.6336 6.36111e-015 -1.43125e-014 -3.18055e-015 0.8229 -2.3 1.6571 -3.18055e-015 -9.54166e-015 -9.54166e-015 -9.412 3.9771 -0.7758 -61.2184 -15.1387 -21.0948 -0.7531 -40.938 4.44089e-016 -178.175 87.0898 176.893 0 -40.1986 -7.10543e-015 43.3911 37.7355 -52.3085 -3.55271e-015 -4.4182 9.239 -7.4914e-006 -3.10887e-007 1.16553e-006 9.4119 3.9773 -0.7758 61.0632 -15.0501 21.1368 0.7532 -40.9383 4.44089e-016 178.559 87.081 -177.286 0 -40.1986 -3.55271e-015 -43.3472 37.7492 52.2711 -3.55271e-015 -4.4182 9.239 2.21497e-007 3.25642e-007 6.13006e-006 
